<svg width="132" height="15" viewBox="0 0 132 15" fill="none" xmlns="http://www.w3.org/2000/svg">
<path d="M2.31 6.75H0.35V5.616H2.31V3.334H3.43V5.616H5.46V6.75H3.43V9.032H2.31V6.75ZM10.5425 12.126C9.63721 12.126 8.94655 11.874 8.47055 11.37C8.00388 10.8567 7.77055 10.138 7.77055 9.214V8.836H9.25455V9.088C9.27321 9.66667 9.37121 10.11 9.54855 10.418C9.73521 10.726 10.0665 10.88 10.5425 10.88C11.0465 10.88 11.3872 10.7073 11.5645 10.362C11.7512 10.0073 11.8445 9.48467 11.8445 8.794C11.8445 8.15933 11.7279 7.66467 11.4945 7.31C11.2612 6.946 10.8832 6.74533 10.3605 6.708C10.3232 6.69867 10.2532 6.694 10.1505 6.694V5.196H10.3465C10.8785 5.17733 11.2612 5.03733 11.4945 4.776C11.7279 4.51467 11.8445 4.08067 11.8445 3.474C11.8445 2.914 11.7512 2.494 11.5645 2.214C11.3779 1.92467 11.0419 1.78 10.5565 1.78C10.0712 1.78 9.73521 1.934 9.54855 2.242C9.37121 2.55 9.27321 3.00267 9.25455 3.6V3.838H7.77055V3.46C7.77055 2.536 8.00388 1.822 8.47055 1.318C8.94655 0.814 9.64188 0.562 10.5565 0.562C11.4712 0.562 12.1619 0.818666 12.6285 1.332C13.1045 1.836 13.3425 2.55 13.3425 3.474C13.3425 4.13667 13.1979 4.678 12.9085 5.098C12.6192 5.518 12.2225 5.80267 11.7185 5.952C12.2319 6.11067 12.6285 6.43267 12.9085 6.918C13.1979 7.40333 13.3425 8.02867 13.3425 8.794C13.3425 9.84867 13.1139 10.67 12.6565 11.258C12.2085 11.8367 11.5039 12.126 10.5425 12.126ZM18.6284 1.836H15.5904V0.659999H20.1264V1.388L18.0264 12H16.5844L18.6284 1.836ZM25.4848 12.112C24.5048 12.112 23.8001 11.8367 23.3708 11.286C22.9508 10.726 22.7408 9.90467 22.7408 8.822H24.2388C24.2388 9.45667 24.3228 9.96533 24.4908 10.348C24.6681 10.7307 25.0088 10.922 25.5128 10.922C25.8955 10.922 26.1801 10.81 26.3668 10.586C26.5535 10.362 26.6701 10.068 26.7168 9.704C26.7728 9.33067 26.8008 8.836 26.8008 8.22C26.8008 7.65067 26.7681 7.198 26.7028 6.862C26.6468 6.51667 26.5255 6.25533 26.3388 6.078C26.1615 5.89133 25.8908 5.798 25.5268 5.798C25.2375 5.798 24.9808 5.88667 24.7568 6.064C24.5421 6.24133 24.3788 6.46533 24.2668 6.736H22.9928V0.659999H27.8788V2.158H24.3508L24.2528 5.294C24.6541 4.874 25.2001 4.664 25.8908 4.664C26.7588 4.664 27.3748 4.96267 27.7388 5.56C28.1121 6.148 28.2988 6.96933 28.2988 8.024C28.2988 9.312 28.0888 10.3153 27.6688 11.034C27.2488 11.7527 26.5208 12.112 25.4848 12.112ZM38.4922 14.716C37.6616 14.7067 37.0456 14.3753 36.6442 13.722C36.2522 13.0687 36.0049 12.266 35.9022 11.314C35.8089 10.362 35.7622 9.13933 35.7622 7.646C35.7622 6.14333 35.8089 4.916 35.9022 3.964C36.0049 3.012 36.2522 2.20933 36.6442 1.556C37.0456 0.893333 37.6616 0.562 38.4922 0.562V1.57C38.1002 1.57933 37.8109 1.85 37.6242 2.382C37.4376 2.914 37.3209 3.56267 37.2742 4.328C37.2276 5.09333 37.2042 6.08267 37.2042 7.296V8.29C37.2042 9.41933 37.2276 10.3573 37.2742 11.104C37.3302 11.8507 37.4516 12.4713 37.6382 12.966C37.8249 13.4607 38.1096 13.7127 38.4922 13.722V14.716ZM40.8842 10.936L43.7682 6.442C43.9082 6.218 44.0015 6.078 44.0482 6.022C44.3748 5.49933 44.6128 5.06533 44.7622 4.72C44.9115 4.37467 44.9862 3.95933 44.9862 3.474C44.9862 2.93267 44.8975 2.51733 44.7202 2.228C44.5428 1.93867 44.2535 1.794 43.8522 1.794C42.9562 1.794 42.5082 2.48933 42.5082 3.88V4.258H41.0102V3.866C41.0102 2.802 41.2295 1.98533 41.6682 1.416C42.1068 0.846666 42.8115 0.562 43.7822 0.562C44.6782 0.562 45.3548 0.818666 45.8122 1.332C46.2695 1.836 46.4982 2.55467 46.4982 3.488C46.4982 3.94533 46.4422 4.356 46.3302 4.72C46.2275 5.07467 46.1015 5.38267 45.9522 5.644C45.8028 5.90533 45.5695 6.27867 45.2522 6.764L42.6482 10.74H46.2322V12H40.8842V10.936ZM51.8257 12.126C50.939 12.126 50.2577 11.8833 49.7817 11.398C49.3057 10.9127 49.0584 10.2173 49.0397 9.312V9.186H50.5377C50.5377 9.76467 50.631 10.194 50.8177 10.474C51.0137 10.7447 51.3544 10.88 51.8397 10.88C52.6797 10.88 53.0997 10.0727 53.0997 8.458V6.736C52.9504 6.97867 52.7357 7.17 52.4557 7.31C52.185 7.45 51.849 7.52 51.4477 7.52C50.561 7.52 49.931 7.24 49.5577 6.68C49.1937 6.11067 49.0117 5.29867 49.0117 4.244C49.0117 3.13333 49.2404 2.242 49.6977 1.57C50.155 0.897999 50.8644 0.562 51.8257 0.562C52.759 0.562 53.4544 0.907333 53.9117 1.598C54.3784 2.27933 54.6117 3.17067 54.6117 4.272V8.08C54.6117 9.30267 54.397 10.2827 53.9677 11.02C53.5384 11.7573 52.8244 12.126 51.8257 12.126ZM51.8257 6.386C52.3764 6.386 52.801 6.12467 53.0997 5.602V3.922C53.0997 2.50333 52.675 1.794 51.8257 1.794C51.359 1.794 51.023 1.99 50.8177 2.382C50.6217 2.76467 50.5237 3.264 50.5237 3.88C50.5237 4.44933 50.547 4.902 50.5937 5.238C50.6404 5.574 50.757 5.84933 50.9437 6.064C51.1304 6.27867 51.4244 6.386 51.8257 6.386ZM57.229 13.708C57.621 13.6987 57.9104 13.428 58.097 12.896C58.293 12.364 58.4144 11.7153 58.461 10.95C58.5077 10.1753 58.531 9.18133 58.531 7.968V6.988C58.531 5.85867 58.503 4.92067 58.447 4.174C58.4004 3.42733 58.279 2.80667 58.083 2.312C57.8964 1.81733 57.6117 1.56533 57.229 1.556V0.562C58.069 0.562 58.685 0.888666 59.077 1.542C59.4784 2.19533 59.7257 2.998 59.819 3.95C59.9217 4.902 59.973 6.12467 59.973 7.618C59.973 9.12067 59.9217 10.348 59.819 11.3C59.7257 12.252 59.4784 13.0547 59.077 13.708C58.685 14.3707 58.069 14.7067 57.229 14.716V13.708ZM68.853 2.62C68.8343 2.648 68.5497 2.71333 67.999 2.816C67.4577 2.91867 67.0843 2.98867 66.879 3.026V1.892C68.0177 1.62133 68.797 1.21067 69.217 0.659999H70.351V12H68.853V2.62ZM75.8038 2.62C75.7851 2.648 75.5004 2.71333 74.9498 2.816C74.4084 2.91867 74.0351 2.98867 73.8298 3.026V1.892C74.9684 1.62133 75.7478 1.21067 76.1678 0.659999H77.3018V12H75.8038V2.62ZM83.6926 12.126C82.7872 12.126 82.0965 11.874 81.6205 11.37C81.1539 10.8567 80.9205 10.138 80.9205 9.214V8.836H82.4046V9.088C82.4232 9.66667 82.5212 10.11 82.6986 10.418C82.8852 10.726 83.2166 10.88 83.6926 10.88C84.1966 10.88 84.5372 10.7073 84.7146 10.362C84.9012 10.0073 84.9946 9.48467 84.9946 8.794C84.9946 8.15933 84.8779 7.66467 84.6446 7.31C84.4112 6.946 84.0332 6.74533 83.5106 6.708C83.4732 6.69867 83.4032 6.694 83.3006 6.694V5.196H83.4966C84.0286 5.17733 84.4112 5.03733 84.6446 4.776C84.8779 4.51467 84.9946 4.08067 84.9946 3.474C84.9946 2.914 84.9012 2.494 84.7146 2.214C84.5279 1.92467 84.1919 1.78 83.7066 1.78C83.2212 1.78 82.8852 1.934 82.6986 2.242C82.5212 2.55 82.4232 3.00267 82.4046 3.6V3.838H80.9205V3.46C80.9205 2.536 81.1539 1.822 81.6205 1.318C82.0965 0.814 82.7919 0.562 83.7066 0.562C84.6212 0.562 85.3119 0.818666 85.7786 1.332C86.2546 1.836 86.4926 2.55 86.4926 3.474C86.4926 4.13667 86.3479 4.678 86.0586 5.098C85.7692 5.518 85.3726 5.80267 84.8686 5.952C85.3819 6.11067 85.7785 6.43267 86.0586 6.918C86.3479 7.40333 86.4926 8.02867 86.4926 8.794C86.4926 9.84867 86.2639 10.67 85.8066 11.258C85.3586 11.8367 84.6539 12.126 83.6926 12.126ZM89.1184 7.212H92.2404V8.346H89.1184V7.212ZM97.9285 12.126C96.9951 12.126 96.2951 11.7853 95.8285 11.104C95.3711 10.4133 95.1425 9.51267 95.1425 8.402V4.58C95.1425 3.35733 95.3571 2.382 95.7865 1.654C96.2158 0.926 96.9298 0.562 97.9285 0.562C98.8058 0.562 99.4825 0.8 99.9585 1.276C100.434 1.752 100.682 2.43333 100.7 3.32L100.714 3.488H99.2025C99.2025 2.90933 99.1091 2.48467 98.9225 2.214C98.7358 1.934 98.4045 1.794 97.9285 1.794C97.0698 1.794 96.6405 2.60133 96.6405 4.216V5.938C96.7898 5.69533 97.0045 5.504 97.2845 5.364C97.5738 5.224 97.9098 5.154 98.2925 5.154C99.1791 5.154 99.8091 5.43867 100.182 6.008C100.556 6.568 100.742 7.37533 100.742 8.43C100.742 9.54067 100.514 10.4367 100.056 11.118C99.5991 11.79 98.8898 12.126 97.9285 12.126ZM97.9285 10.88C98.3951 10.88 98.7265 10.6887 98.9225 10.306C99.1278 9.92333 99.2305 9.41933 99.2305 8.794C99.2305 8.22467 99.2071 7.772 99.1605 7.436C99.1138 7.1 98.9971 6.82467 98.8105 6.61C98.6238 6.39533 98.3298 6.288 97.9285 6.288C97.6391 6.288 97.3825 6.36267 97.1585 6.512C96.9438 6.66133 96.7711 6.84333 96.6405 7.058V8.752C96.6405 9.396 96.7385 9.914 96.9345 10.306C97.1398 10.6887 97.4711 10.88 97.9285 10.88ZM106.201 12.126C105.315 12.126 104.633 11.8833 104.157 11.398C103.681 10.9127 103.434 10.2173 103.415 9.312V9.186H104.913C104.913 9.76467 105.007 10.194 105.193 10.474C105.389 10.7447 105.73 10.88 106.215 10.88C107.055 10.88 107.475 10.0727 107.475 8.458V6.736C107.326 6.97867 107.111 7.17 106.831 7.31C106.561 7.45 106.225 7.52 105.823 7.52C104.937 7.52 104.307 7.24 103.933 6.68C103.569 6.11067 103.387 5.29867 103.387 4.244C103.387 3.13333 103.616 2.242 104.073 1.57C104.531 0.897999 105.24 0.562 106.201 0.562C107.135 0.562 107.83 0.907333 108.287 1.598C108.754 2.27933 108.987 3.17067 108.987 4.272V8.08C108.987 9.30267 108.773 10.2827 108.343 11.02C107.914 11.7573 107.2 12.126 106.201 12.126ZM106.201 6.386C106.752 6.386 107.177 6.12467 107.475 5.602V3.922C107.475 2.50333 107.051 1.794 106.201 1.794C105.735 1.794 105.399 1.99 105.193 2.382C104.997 2.76467 104.899 3.264 104.899 3.88C104.899 4.44933 104.923 4.902 104.969 5.238C105.016 5.574 105.133 5.84933 105.319 6.064C105.506 6.27867 105.8 6.386 106.201 6.386ZM111.885 7.212H115.007V8.346H111.885V7.212ZM120.695 12.126C119.762 12.126 119.062 11.7853 118.595 11.104C118.138 10.4133 117.909 9.51267 117.909 8.402V4.58C117.909 3.35733 118.124 2.382 118.553 1.654C118.982 0.926 119.696 0.562 120.695 0.562C121.572 0.562 122.249 0.8 122.725 1.276C123.201 1.752 123.448 2.43333 123.467 3.32L123.481 3.488H121.969C121.969 2.90933 121.876 2.48467 121.689 2.214C121.502 1.934 121.171 1.794 120.695 1.794C119.836 1.794 119.407 2.60133 119.407 4.216V5.938C119.556 5.69533 119.771 5.504 120.051 5.364C120.34 5.224 120.676 5.154 121.059 5.154C121.946 5.154 122.576 5.43867 122.949 6.008C123.322 6.568 123.509 7.37533 123.509 8.43C123.509 9.54067 123.28 10.4367 122.823 11.118C122.366 11.79 121.656 12.126 120.695 12.126ZM120.695 10.88C121.162 10.88 121.493 10.6887 121.689 10.306C121.894 9.92333 121.997 9.41933 121.997 8.794C121.997 8.22467 121.974 7.772 121.927 7.436C121.88 7.1 121.764 6.82467 121.577 6.61C121.39 6.39533 121.096 6.288 120.695 6.288C120.406 6.288 120.149 6.36267 119.925 6.512C119.71 6.66133 119.538 6.84333 119.407 7.058V8.752C119.407 9.396 119.505 9.914 119.701 10.306C119.906 10.6887 120.238 10.88 120.695 10.88ZM128.968 12.126C128.081 12.126 127.4 11.8833 126.924 11.398C126.448 10.9127 126.201 10.2173 126.182 9.312V9.186H127.68C127.68 9.76467 127.773 10.194 127.96 10.474C128.156 10.7447 128.497 10.88 128.982 10.88C129.822 10.88 130.242 10.0727 130.242 8.458V6.736C130.093 6.97867 129.878 7.17 129.598 7.31C129.327 7.45 128.991 7.52 128.59 7.52C127.703 7.52 127.073 7.24 126.7 6.68C126.336 6.11067 126.154 5.29867 126.154 4.244C126.154 3.13333 126.383 2.242 126.84 1.57C127.297 0.897999 128.007 0.562 128.968 0.562C129.901 0.562 130.597 0.907333 131.054 1.598C131.521 2.27933 131.754 3.17067 131.754 4.272V8.08C131.754 9.30267 131.539 10.2827 131.11 11.02C130.681 11.7573 129.967 12.126 128.968 12.126ZM128.968 6.386C129.519 6.386 129.943 6.12467 130.242 5.602V3.922C130.242 2.50333 129.817 1.794 128.968 1.794C128.501 1.794 128.165 1.99 127.96 2.382C127.764 2.76467 127.666 3.264 127.666 3.88C127.666 4.44933 127.689 4.902 127.736 5.238C127.783 5.574 127.899 5.84933 128.086 6.064C128.273 6.27867 128.567 6.386 128.968 6.386Z" fill="#43FFD2"/>
</svg>
