<svg width="161" height="21" viewBox="0 0 161 21" fill="none" xmlns="http://www.w3.org/2000/svg">
<path d="M30.31 11.75H28.35V10.616H30.31V8.334H31.43V10.616H33.46V11.75H31.43V14.032H30.31V11.75ZM38.5425 17.126C37.6372 17.126 36.9465 16.874 36.4705 16.37C36.0039 15.8567 35.7705 15.138 35.7705 14.214V13.836H37.2545V14.088C37.2732 14.6667 37.3712 15.11 37.5485 15.418C37.7352 15.726 38.0665 15.88 38.5425 15.88C39.0465 15.88 39.3872 15.7073 39.5645 15.362C39.7512 15.0073 39.8445 14.4847 39.8445 13.794C39.8445 13.1593 39.7279 12.6647 39.4945 12.31C39.2612 11.946 38.8832 11.7453 38.3605 11.708C38.3232 11.6987 38.2532 11.694 38.1505 11.694V10.196H38.3465C38.8785 10.1773 39.2612 10.0373 39.4945 9.776C39.7279 9.51467 39.8445 9.08067 39.8445 8.474C39.8445 7.914 39.7512 7.494 39.5645 7.214C39.3779 6.92467 39.0419 6.78 38.5565 6.78C38.0712 6.78 37.7352 6.934 37.5485 7.242C37.3712 7.55 37.2732 8.00267 37.2545 8.6V8.838H35.7705V8.46C35.7705 7.536 36.0039 6.822 36.4705 6.318C36.9465 5.814 37.6419 5.562 38.5565 5.562C39.4712 5.562 40.1619 5.81867 40.6285 6.332C41.1045 6.836 41.3425 7.55 41.3425 8.474C41.3425 9.13667 41.1979 9.678 40.9085 10.098C40.6192 10.518 40.2225 10.8027 39.7185 10.952C40.2319 11.1107 40.6285 11.4327 40.9085 11.918C41.1979 12.4033 41.3425 13.0287 41.3425 13.794C41.3425 14.8487 41.1139 15.67 40.6565 16.258C40.2085 16.8367 39.5039 17.126 38.5425 17.126ZM46.6284 6.836H43.5904V5.66H48.1264V6.388L46.0264 17H44.5844L46.6284 6.836ZM53.4848 17.112C52.5048 17.112 51.8001 16.8367 51.3708 16.286C50.9508 15.726 50.7408 14.9047 50.7408 13.822H52.2388C52.2388 14.4567 52.3228 14.9653 52.4908 15.348C52.6681 15.7307 53.0088 15.922 53.5128 15.922C53.8955 15.922 54.1801 15.81 54.3668 15.586C54.5535 15.362 54.6701 15.068 54.7168 14.704C54.7728 14.3307 54.8008 13.836 54.8008 13.22C54.8008 12.6507 54.7681 12.198 54.7028 11.862C54.6468 11.5167 54.5255 11.2553 54.3388 11.078C54.1615 10.8913 53.8908 10.798 53.5268 10.798C53.2375 10.798 52.9808 10.8867 52.7568 11.064C52.5421 11.2413 52.3788 11.4653 52.2668 11.736H50.9928V5.66H55.8788V7.158H52.3508L52.2528 10.294C52.6541 9.874 53.2001 9.664 53.8908 9.664C54.7588 9.664 55.3748 9.96267 55.7388 10.56C56.1121 11.148 56.2988 11.9693 56.2988 13.024C56.2988 14.312 56.0888 15.3153 55.6688 16.034C55.2488 16.7527 54.5208 17.112 53.4848 17.112ZM66.4922 19.716C65.6616 19.7067 65.0456 19.3753 64.6442 18.722C64.2522 18.0687 64.0049 17.266 63.9022 16.314C63.8089 15.362 63.7622 14.1393 63.7622 12.646C63.7622 11.1433 63.8089 9.916 63.9022 8.964C64.0049 8.012 64.2522 7.20933 64.6442 6.556C65.0456 5.89333 65.6616 5.562 66.4922 5.562V6.57C66.1002 6.57933 65.8109 6.85 65.6242 7.382C65.4376 7.914 65.3209 8.56267 65.2742 9.328C65.2276 10.0933 65.2042 11.0827 65.2042 12.296V13.29C65.2042 14.4193 65.2276 15.3573 65.2742 16.104C65.3302 16.8507 65.4516 17.4713 65.6382 17.966C65.8249 18.4607 66.1096 18.7127 66.4922 18.722V19.716ZM68.8842 15.936L71.7682 11.442C71.9082 11.218 72.0015 11.078 72.0482 11.022C72.3748 10.4993 72.6128 10.0653 72.7622 9.72C72.9115 9.37467 72.9862 8.95933 72.9862 8.474C72.9862 7.93267 72.8975 7.51733 72.7202 7.228C72.5428 6.93867 72.2535 6.794 71.8522 6.794C70.9562 6.794 70.5082 7.48933 70.5082 8.88V9.258H69.0102V8.866C69.0102 7.802 69.2295 6.98533 69.6682 6.416C70.1068 5.84667 70.8115 5.562 71.7822 5.562C72.6782 5.562 73.3548 5.81867 73.8122 6.332C74.2695 6.836 74.4982 7.55467 74.4982 8.488C74.4982 8.94533 74.4422 9.356 74.3302 9.72C74.2275 10.0747 74.1015 10.3827 73.9522 10.644C73.8028 10.9053 73.5695 11.2787 73.2522 11.764L70.6482 15.74H74.2322V17H68.8842V15.936ZM79.8257 17.126C78.939 17.126 78.2577 16.8833 77.7817 16.398C77.3057 15.9127 77.0584 15.2173 77.0397 14.312V14.186H78.5377C78.5377 14.7647 78.631 15.194 78.8177 15.474C79.0137 15.7447 79.3544 15.88 79.8397 15.88C80.6797 15.88 81.0997 15.0727 81.0997 13.458V11.736C80.9504 11.9787 80.7357 12.17 80.4557 12.31C80.185 12.45 79.849 12.52 79.4477 12.52C78.561 12.52 77.931 12.24 77.5577 11.68C77.1937 11.1107 77.0117 10.2987 77.0117 9.244C77.0117 8.13333 77.2404 7.242 77.6977 6.57C78.155 5.898 78.8644 5.562 79.8257 5.562C80.759 5.562 81.4544 5.90733 81.9117 6.598C82.3784 7.27933 82.6117 8.17067 82.6117 9.272V13.08C82.6117 14.3027 82.397 15.2827 81.9677 16.02C81.5384 16.7573 80.8244 17.126 79.8257 17.126ZM79.8257 11.386C80.3764 11.386 80.801 11.1247 81.0997 10.602V8.922C81.0997 7.50333 80.675 6.794 79.8257 6.794C79.359 6.794 79.023 6.99 78.8177 7.382C78.6217 7.76467 78.5237 8.264 78.5237 8.88C78.5237 9.44933 78.547 9.902 78.5937 10.238C78.6404 10.574 78.757 10.8493 78.9437 11.064C79.1304 11.2787 79.4244 11.386 79.8257 11.386ZM85.229 18.708C85.621 18.6987 85.9104 18.428 86.097 17.896C86.293 17.364 86.4144 16.7153 86.461 15.95C86.5077 15.1753 86.531 14.1813 86.531 12.968V11.988C86.531 10.8587 86.503 9.92067 86.447 9.174C86.4004 8.42733 86.279 7.80667 86.083 7.312C85.8964 6.81733 85.6117 6.56533 85.229 6.556V5.562C86.069 5.562 86.685 5.88867 87.077 6.542C87.4784 7.19533 87.7257 7.998 87.819 8.95C87.9217 9.902 87.973 11.1247 87.973 12.618C87.973 14.1207 87.9217 15.348 87.819 16.3C87.7257 17.252 87.4784 18.0547 87.077 18.708C86.685 19.3707 86.069 19.7067 85.229 19.716V18.708ZM96.853 7.62C96.8343 7.648 96.5497 7.71333 95.999 7.816C95.4577 7.91867 95.0843 7.98867 94.879 8.026V6.892C96.0177 6.62133 96.797 6.21067 97.217 5.66H98.351V17H96.853V7.62ZM103.804 7.62C103.785 7.648 103.5 7.71333 102.95 7.816C102.408 7.91867 102.035 7.98867 101.83 8.026V6.892C102.968 6.62133 103.748 6.21067 104.168 5.66H105.302V17H103.804V7.62ZM111.693 17.126C110.787 17.126 110.097 16.874 109.621 16.37C109.154 15.8567 108.921 15.138 108.921 14.214V13.836H110.405V14.088C110.423 14.6667 110.521 15.11 110.699 15.418C110.885 15.726 111.217 15.88 111.693 15.88C112.197 15.88 112.537 15.7073 112.715 15.362C112.901 15.0073 112.995 14.4847 112.995 13.794C112.995 13.1593 112.878 12.6647 112.645 12.31C112.411 11.946 112.033 11.7453 111.511 11.708C111.473 11.6987 111.403 11.694 111.301 11.694V10.196H111.497C112.029 10.1773 112.411 10.0373 112.645 9.776C112.878 9.51467 112.995 9.08067 112.995 8.474C112.995 7.914 112.901 7.494 112.715 7.214C112.528 6.92467 112.192 6.78 111.707 6.78C111.221 6.78 110.885 6.934 110.699 7.242C110.521 7.55 110.423 8.00267 110.405 8.6V8.838H108.921V8.46C108.921 7.536 109.154 6.822 109.621 6.318C110.097 5.814 110.792 5.562 111.707 5.562C112.621 5.562 113.312 5.81867 113.779 6.332C114.255 6.836 114.493 7.55 114.493 8.474C114.493 9.13667 114.348 9.678 114.059 10.098C113.769 10.518 113.373 10.8027 112.869 10.952C113.382 11.1107 113.779 11.4327 114.059 11.918C114.348 12.4033 114.493 13.0287 114.493 13.794C114.493 14.8487 114.264 15.67 113.807 16.258C113.359 16.8367 112.654 17.126 111.693 17.126ZM117.118 12.212H120.24V13.346H117.118V12.212ZM125.928 17.126C124.995 17.126 124.295 16.7853 123.828 16.104C123.371 15.4133 123.142 14.5127 123.142 13.402V9.58C123.142 8.35733 123.357 7.382 123.786 6.654C124.216 5.926 124.93 5.562 125.928 5.562C126.806 5.562 127.482 5.8 127.958 6.276C128.434 6.752 128.682 7.43333 128.7 8.32L128.714 8.488H127.202C127.202 7.90933 127.109 7.48467 126.922 7.214C126.736 6.934 126.404 6.794 125.928 6.794C125.07 6.794 124.64 7.60133 124.64 9.216V10.938C124.79 10.6953 125.004 10.504 125.284 10.364C125.574 10.224 125.91 10.154 126.292 10.154C127.179 10.154 127.809 10.4387 128.182 11.008C128.556 11.568 128.742 12.3753 128.742 13.43C128.742 14.5407 128.514 15.4367 128.056 16.118C127.599 16.79 126.89 17.126 125.928 17.126ZM125.928 15.88C126.395 15.88 126.726 15.6887 126.922 15.306C127.128 14.9233 127.23 14.4193 127.23 13.794C127.23 13.2247 127.207 12.772 127.16 12.436C127.114 12.1 126.997 11.8247 126.81 11.61C126.624 11.3953 126.33 11.288 125.928 11.288C125.639 11.288 125.382 11.3627 125.158 11.512C124.944 11.6613 124.771 11.8433 124.64 12.058V13.752C124.64 14.396 124.738 14.914 124.934 15.306C125.14 15.6887 125.471 15.88 125.928 15.88ZM134.201 17.126C133.315 17.126 132.633 16.8833 132.157 16.398C131.681 15.9127 131.434 15.2173 131.415 14.312V14.186H132.913C132.913 14.7647 133.007 15.194 133.193 15.474C133.389 15.7447 133.73 15.88 134.215 15.88C135.055 15.88 135.475 15.0727 135.475 13.458V11.736C135.326 11.9787 135.111 12.17 134.831 12.31C134.561 12.45 134.225 12.52 133.823 12.52C132.937 12.52 132.307 12.24 131.933 11.68C131.569 11.1107 131.387 10.2987 131.387 9.244C131.387 8.13333 131.616 7.242 132.073 6.57C132.531 5.898 133.24 5.562 134.201 5.562C135.135 5.562 135.83 5.90733 136.287 6.598C136.754 7.27933 136.987 8.17067 136.987 9.272V13.08C136.987 14.3027 136.773 15.2827 136.343 16.02C135.914 16.7573 135.2 17.126 134.201 17.126ZM134.201 11.386C134.752 11.386 135.177 11.1247 135.475 10.602V8.922C135.475 7.50333 135.051 6.794 134.201 6.794C133.735 6.794 133.399 6.99 133.193 7.382C132.997 7.76467 132.899 8.264 132.899 8.88C132.899 9.44933 132.923 9.902 132.969 10.238C133.016 10.574 133.133 10.8493 133.319 11.064C133.506 11.2787 133.8 11.386 134.201 11.386ZM139.885 12.212H143.007V13.346H139.885V12.212ZM148.695 17.126C147.762 17.126 147.062 16.7853 146.595 16.104C146.138 15.4133 145.909 14.5127 145.909 13.402V9.58C145.909 8.35733 146.124 7.382 146.553 6.654C146.982 5.926 147.696 5.562 148.695 5.562C149.572 5.562 150.249 5.8 150.725 6.276C151.201 6.752 151.448 7.43333 151.467 8.32L151.481 8.488H149.969C149.969 7.90933 149.876 7.48467 149.689 7.214C149.502 6.934 149.171 6.794 148.695 6.794C147.836 6.794 147.407 7.60133 147.407 9.216V10.938C147.556 10.6953 147.771 10.504 148.051 10.364C148.34 10.224 148.676 10.154 149.059 10.154C149.946 10.154 150.576 10.4387 150.949 11.008C151.322 11.568 151.509 12.3753 151.509 13.43C151.509 14.5407 151.28 15.4367 150.823 16.118C150.366 16.79 149.656 17.126 148.695 17.126ZM148.695 15.88C149.162 15.88 149.493 15.6887 149.689 15.306C149.894 14.9233 149.997 14.4193 149.997 13.794C149.997 13.2247 149.974 12.772 149.927 12.436C149.88 12.1 149.764 11.8247 149.577 11.61C149.39 11.3953 149.096 11.288 148.695 11.288C148.406 11.288 148.149 11.3627 147.925 11.512C147.71 11.6613 147.538 11.8433 147.407 12.058V13.752C147.407 14.396 147.505 14.914 147.701 15.306C147.906 15.6887 148.238 15.88 148.695 15.88ZM156.968 17.126C156.081 17.126 155.4 16.8833 154.924 16.398C154.448 15.9127 154.201 15.2173 154.182 14.312V14.186H155.68C155.68 14.7647 155.773 15.194 155.96 15.474C156.156 15.7447 156.497 15.88 156.982 15.88C157.822 15.88 158.242 15.0727 158.242 13.458V11.736C158.093 11.9787 157.878 12.17 157.598 12.31C157.327 12.45 156.991 12.52 156.59 12.52C155.703 12.52 155.073 12.24 154.7 11.68C154.336 11.1107 154.154 10.2987 154.154 9.244C154.154 8.13333 154.383 7.242 154.84 6.57C155.297 5.898 156.007 5.562 156.968 5.562C157.901 5.562 158.597 5.90733 159.054 6.598C159.521 7.27933 159.754 8.17067 159.754 9.272V13.08C159.754 14.3027 159.539 15.2827 159.11 16.02C158.681 16.7573 157.967 17.126 156.968 17.126ZM156.968 11.386C157.519 11.386 157.943 11.1247 158.242 10.602V8.922C158.242 7.50333 157.817 6.794 156.968 6.794C156.501 6.794 156.165 6.99 155.96 7.382C155.764 7.76467 155.666 8.264 155.666 8.88C155.666 9.44933 155.689 9.902 155.736 10.238C155.783 10.574 155.899 10.8493 156.086 11.064C156.273 11.2787 156.567 11.386 156.968 11.386Z" fill="#43FFD2"/>
<path d="M14.625 18.5C15.2452 18.5 15.75 17.9952 15.75 17.375V14.75C15.75 14.1298 15.2452 13.625 14.625 13.625C13.7475 13.625 12.885 13.487 12.06 13.2148C11.8628 13.1525 11.6524 13.1449 11.4512 13.1929C11.25 13.2408 11.0657 13.3425 10.9178 13.487L9.83775 14.567C7.97108 13.5536 6.43802 12.0211 5.424 10.1547L6.495 9.077C6.804 8.7905 6.915 8.35475 6.783 7.9355C6.5113 7.10922 6.37356 6.2448 6.375 5.375C6.375 4.75475 5.87025 4.25 5.25 4.25H2.625C2.00475 4.25 1.5 4.75475 1.5 5.375C1.5 12.6125 7.3875 18.5 14.625 18.5ZM2.625 5H5.25C5.34946 5 5.44484 5.03951 5.51516 5.10984C5.58549 5.18016 5.625 5.27554 5.625 5.375C5.625 6.33275 5.775 7.27325 6.06975 8.165C6.09141 8.22971 6.09394 8.29929 6.07704 8.36541C6.06015 8.43152 6.02455 8.49136 5.9745 8.53775L4.5075 10.0122C5.73525 12.4332 7.54875 14.2467 9.981 15.485L11.4427 14.0225C11.4926 13.9731 11.555 13.9383 11.6232 13.9216C11.6913 13.905 11.7627 13.9072 11.8298 13.928C12.7267 14.225 13.6672 14.375 14.625 14.375C14.8313 14.375 15 14.5437 15 14.75V17.375C15 17.5813 14.8313 17.75 14.625 17.75C7.8015 17.75 2.25 12.1985 2.25 5.375C2.25 5.27554 2.28951 5.18016 2.35984 5.10984C2.43016 5.03951 2.52554 5 2.625 5Z" fill="#43FFD2"/>
</svg>
